<svg aria-hidden="true" style="position: absolute; width: 0; height: 0; overflow: hidden;" version="1.1" xmlns="http://www.w3.org/2000/svg" xmlns:xlink="http://www.w3.org/1999/xlink">
<defs>
<symbol id="icon-arrow-down" viewBox="0 0 51 32">
<path fill="#77be1d" style="fill: var(--color1, #77be1d)" d="M25.6 15.395l-17.572-15.395-8.028 9.572 25.6 22.428 25.6-22.428-8.028-9.572-17.572 15.395z"></path>
</symbol>
<symbol id="icon-arrow-up" viewBox="0 0 51 32">
<path fill="#77be1d" style="fill: var(--color1, #77be1d)" d="M25.6 16.605l-17.572 15.395-8.028-9.572 25.6-22.428 25.6 22.428-8.028 9.572-17.572-15.395z"></path>
</symbol>
<symbol id="icon-bucket" viewBox="0 0 31 32">
<path fill="#77be1d" style="fill: var(--color1, #77be1d)" d="M3.404 3.339l-3.404-0.313 0.289-3.026 5.463 0.502 1.412 4.479 23.557 2.165-1.070 11.22-20.439 3.399-5.807-18.426zM8.154 8.125l3.214 10.198 15.421-2.564 0.56-5.87-19.195-1.764z"></path>
<path fill="#77be1d" style="fill: var(--color1, #77be1d)" d="M24.026 28.961c0.428 0 0.774-0.34 0.774-0.76s-0.347-0.76-0.774-0.76-0.774 0.34-0.774 0.76c0 0.42 0.347 0.76 0.774 0.76zM24.026 32c2.138 0 3.871-1.701 3.871-3.799s-1.733-3.799-3.871-3.799-3.871 1.701-3.871 3.799c0 2.098 1.733 3.799 3.871 3.799z"></path>
<path fill="#77be1d" style="fill: var(--color1, #77be1d)" d="M11.64 28.961c0.428 0 0.774-0.34 0.774-0.76s-0.347-0.76-0.774-0.76-0.774 0.34-0.774 0.76c0 0.42 0.347 0.76 0.774 0.76zM11.64 32c2.138 0 3.871-1.701 3.871-3.799s-1.733-3.799-3.871-3.799-3.871 1.701-3.871 3.799c0 2.098 1.733 3.799 3.871 3.799z"></path>
</symbol>
<symbol id="icon-heart" viewBox="0 0 40 32">
<path fill="#cdcdcf" style="fill: var(--color2, #cdcdcf)" d="M10.939 3.765c-4.107 0-7.166 3.024-7.166 6.437 0 1.655 0.714 3.277 2.043 4.498l13.993 12.86 13.993-12.86c1.329-1.221 2.043-2.843 2.043-4.498 0-3.412-3.059-6.437-7.166-6.437-1.948 0-3.789 0.713-5.123 1.939l-2.469 2.269c-0.722 0.664-1.834 0.664-2.556 0l-2.469-2.269c-1.334-1.226-3.175-1.939-5.123-1.939zM0 10.201c0-5.777 5.047-10.201 10.939-10.201 2.853 0 5.618 1.040 7.679 2.934l1.191 1.095 1.191-1.095c2.061-1.894 4.826-2.934 7.679-2.934 5.892 0 10.939 4.425 10.939 10.201 0 2.758-1.194 5.368-3.26 7.267l-15.271 14.034c-0.722 0.664-1.834 0.664-2.556 0l-15.271-14.034c-2.066-1.899-3.26-4.509-3.26-7.267z"></path>
</symbol>
<symbol id="icon-menu" viewBox="0 0 78 32">
<path fill="#fff" style="fill: var(--color3, #fff)" d="M0 0h78.222v7.111h-78.222v-7.111z"></path>
<path fill="#fff" style="fill: var(--color3, #fff)" d="M0 24.889h49.778v7.111h-49.778v-7.111z"></path>
</symbol>
<symbol id="icon-search" viewBox="0 0 32 32">
<path fill="#fff" style="fill: var(--color3, #fff)" opacity="0.2" d="M29.332 15.53c0-7.104-5.758-12.863-12.861-12.863s-12.861 5.759-12.861 12.863c0 7.104 5.758 12.863 12.861 12.863s12.861-5.759 12.861-12.863zM31.999 15.53c0 8.577-6.952 15.529-15.528 15.529-3.808 0-7.296-1.371-9.997-3.646l-4.588 4.589-1.886-1.886 4.588-4.589c-2.275-2.701-3.645-6.189-3.645-9.998 0-8.577 6.952-15.53 15.528-15.53s15.528 6.953 15.528 15.53z"></path>
</symbol>
</defs>
</svg>
